<svg width="1455" height="408" viewBox="0 0 1455 408" fill="none" xmlns="http://www.w3.org/2000/svg">
<path d="M621.718 98.197C597.838 94.2075 554.29 31.7404 554.29 0C554.29 31.7404 510.735 94.201 486.855 98.197C486.062 98.327 485.289 98.3984 484.535 98.3984C507.785 98.3984 554.29 163.997 554.29 196.797C554.29 163.997 600.789 98.3984 624.039 98.3984C623.291 98.3984 622.518 98.3335 621.718 98.197Z" fill="#1f2430"/>
<path d="M225.138 98.3986C189.565 98.3986 162.552 114.597 140.485 138.911H138.236L144.086 106.046H53.1289L0 407.622H90.9571L109.417 303.649H111.665C123.371 328.398 145.887 338.3 170.65 338.3C238.176 338.3 287.717 263.137 287.717 177.161C287.717 119.1 265.195 98.3986 225.131 98.3986H225.138ZM148.597 273.039C131.931 273.039 124.275 260.889 124.275 237.036C124.275 201.475 140.94 164.114 170.202 164.114C187.309 164.114 194.524 177.161 194.524 200.117C194.524 234.768 178.307 273.032 148.597 273.032V273.039Z" fill="#1f2430"/>
<path d="M463.885 98.6259C434.812 100.842 417.588 118.97 407.045 149.703H404.796L412.447 106.04H321.502L281.874 331.101H375.08L389.496 250.077C397.601 205.517 418.758 187.967 448.02 187.967C458.374 187.967 469.638 190.215 480.44 193.366L493.888 117.54C483.06 107.047 472.504 99.9449 463.892 98.6259H463.885Z" fill="#1f2430"/>
<path d="M554.284 229.921C554.284 203.561 531.821 161.366 507.148 131.893L471.88 331.094H565.086L600.068 133.531C575.934 162.912 554.284 204.042 554.284 229.915V229.921Z" fill="#1f2430"/>
<path d="M737.985 159.163C762.294 159.163 783.002 168.604 801.02 183.016L812.284 119.541C790.204 104.701 761.404 98.392 730.329 98.392C657.389 98.392 611.904 133.043 611.904 183.016C611.904 210.026 624.968 225.327 646.138 234.768C654.691 238.368 679.449 247.38 680.801 247.828C695.217 253.228 701.957 256.827 701.957 264.027C701.957 273.039 692.065 277.087 675.399 277.087C649.738 277.087 623.168 268.088 601.101 254.137L589.837 317.599C606.502 332.459 638.468 338.3 672.241 338.3C752.831 338.3 799.219 305.448 799.219 252.338C799.219 219.915 781.65 212.716 769.047 206.413C764.537 204.165 757.784 201.014 748.339 197.414C733.033 191.566 709.614 184.354 709.614 172.665C709.614 164.114 720.878 159.163 737.985 159.163Z" fill="#1f2430"/>
<path d="M1154.92 98.3984C1118.45 98.3984 1090.53 119.1 1070.26 149.709H1068.01C1065.77 114.597 1045.95 98.3984 1013.09 98.3984C980.217 98.3984 952.3 117.3 929.785 145.2H927.523L934.277 106.04H843.333L803.697 331.101H896.903L917.163 216.315C921.667 190.215 933.828 180.313 948.686 180.313C965.352 180.313 969.843 192.924 966.691 211.826L945.534 331.101H1038.74L1059 216.315C1063.5 190.215 1075.67 180.313 1090.51 180.313C1107.18 180.313 1111.68 192.924 1108.53 211.826L1087.37 331.101H1180.56L1207.58 177.623C1217.49 120.458 1194.98 98.3984 1154.9 98.3984H1154.92Z" fill="#1f2430"/>
<path d="M1359.79 98.3984C1269.74 98.3984 1214.82 158.708 1214.82 241.526C1214.82 312.641 1255.34 338.3 1330.98 338.3C1372.42 338.3 1405.28 330.652 1425.1 322.55L1436.34 259.089C1408.88 269.887 1380.51 274.39 1355.75 274.39C1316.12 274.39 1302.16 261.779 1305.32 243.326H1445.81L1451.21 213.625C1466.07 131.698 1426.44 98.3984 1359.8 98.3984H1359.79ZM1377.36 191.112H1314.78C1318.83 167.72 1333.69 159.612 1351.24 159.612C1373.75 159.612 1380.5 172.21 1377.36 191.112Z" fill="#1f2430"/>
</svg>

